<?xml version="1.0" standalone="no"?>
<!DOCTYPE svg PUBLIC "-//W3C//DTD SVG 20010904//EN"
 "http://www.w3.org/TR/2001/REC-SVG-20010904/DTD/svg10.dtd">
<svg version="1.0" xmlns="http://www.w3.org/2000/svg"
 width="500.000000pt" height="500.000000pt" viewBox="0 0 500.000000 500.000000"
 preserveAspectRatio="xMidYMid meet">

<g transform="translate(0.000000,500.000000) scale(0.100000,-0.100000)"
fill="#000000" stroke="none">
<path d="M3575 4935 c-267 -43 -421 -98 -827 -297 l-287 -141 -188 95 c-318
162 -525 242 -766 295 l-122 27 -633 3 c-476 3 -637 1 -648 -8 -12 -10 -14
-145 -14 -899 0 -835 1 -888 18 -903 15 -14 85 -16 617 -20 515 -3 612 -6 685
-20 154 -31 184 -41 197 -68 10 -19 13 -349 13 -1499 0 -1135 3 -1479 12
-1488 8 -8 48 -12 115 -12 91 0 103 2 113 19 7 13 10 479 10 1435 l0 1416 26
17 c26 17 28 16 276 -108 137 -68 254 -132 259 -141 5 -10 9 -549 9 -1315 0
-997 3 -1302 12 -1311 17 -17 1029 -17 1046 0 9 9 12 278 12 1150 0 1125 0
1138 20 1158 20 20 33 20 665 20 355 0 644 3 643 8 -2 4 8 18 20 30 22 22 24
30 20 117 -2 60 -8 99 -16 107 -10 10 -172 14 -807 16 l-795 2 0 -1160 0
-1161 -25 -24 -24 -25 -238 0 c-200 0 -242 3 -261 16 l-22 15 0 1242 c0 683
-3 1252 -6 1264 -5 18 -77 58 -333 186 -428 215 -609 286 -861 337 -146 30
-336 40 -750 40 -279 0 -379 3 -388 12 -9 9 -12 79 -12 255 0 235 1 243 21
253 14 8 158 10 492 7 506 -4 541 -7 732 -62 173 -50 298 -104 615 -264 179
-90 379 -187 445 -216 214 -94 453 -162 680 -196 53 -8 324 -13 803 -16 652
-4 725 -3 747 11 l25 16 0 888 c0 677 -3 891 -12 900 -18 18 -1201 15 -1313
-3z m1063 -247 c17 -17 17 -489 0 -506 -19 -19 -1131 -17 -1280 3 -178 23
-468 101 -516 138 -7 6 -12 24 -10 41 3 29 12 35 148 103 232 116 436 185 645
217 121 19 995 22 1013 4z m-3258 -38 c117 -18 284 -64 405 -111 61 -23 270
-122 465 -220 479 -240 662 -311 929 -363 195 -38 353 -46 921 -46 396 0 529
-3 538 -12 17 -17 17 -489 0 -506 -20 -20 -1131 -17 -1285 3 -302 40 -517 119
-1006 370 -345 177 -558 263 -781 315 -181 43 -278 50 -743 50 -430 0 -444 1
-463 20 -19 19 -20 33 -20 250 0 220 1 231 21 251 21 21 24 21 483 16 283 -3
490 -9 536 -17z"/>
</g>
</svg>
