<?xml version="1.0" encoding="UTF-8"?>
<svg version="1.1" xmlns="http://www.w3.org/2000/svg" width="500" height="500">
<path d="M0 0 C2.60553115 -0.00457319 5.2110611 -0.0098821 7.81658936 -0.0158844 C13.22184319 -0.0258013 18.6269764 -0.0227188 24.03222656 -0.01245117 C30.27383171 -0.00085675 36.51501283 -0.01527236 42.75656247 -0.04184765 C48.80454631 -0.06662626 54.85231051 -0.06919665 60.90035248 -0.06273079 C63.46009789 -0.06257733 66.01985147 -0.06864182 68.57956696 -0.08102226 C72.13312771 -0.09582249 75.68572815 -0.08534371 79.23925781 -0.06811523 C80.82395874 -0.08261719 80.82395874 -0.08261719 82.44067383 -0.09741211 C83.40442932 -0.08757797 84.36818481 -0.07774384 85.36114502 -0.06761169 C86.19867939 -0.06740241 87.03621376 -0.06719313 87.89912796 -0.0669775 C90.046875 0.43359375 90.046875 0.43359375 91.81592369 2.0189352 C93.49724369 5.31704593 93.42457943 7.86954611 93.42782593 11.56933594 C93.4325059 12.28863659 93.43718587 13.00793724 93.44200766 13.74903488 C93.45397536 16.1597003 93.44449379 18.56979909 93.43505859 20.98046875 C93.43912352 22.70854016 93.44446495 24.43660897 93.45098877 26.16467285 C93.46467763 30.85883442 93.45935725 35.55279843 93.44985151 40.2469635 C93.44226306 45.15650978 93.44929826 50.066039 93.45401001 54.97558594 C93.45946993 63.22073406 93.45226973 71.46580161 93.43798828 79.7109375 C93.42166132 89.24721611 93.42694966 98.78330231 93.4434675 108.31957626 C93.45707561 116.50310795 93.45900533 124.68658166 93.45115149 132.870121 C93.44647126 137.75959681 93.44585973 142.64898213 93.45576096 147.53845215 C93.46441852 152.13495402 93.45843089 156.7312075 93.44107819 161.3276825 C93.43710687 163.01596158 93.4382584 164.70426152 93.44486618 166.39253235 C93.45304647 168.6945889 93.44280342 170.99584614 93.42782593 173.29785156 C93.42669485 174.58685364 93.42556377 175.87585571 93.42439842 177.20391846 C93.01765409 180.68357575 92.6909388 182.14289665 90.046875 184.43359375 C87.49866295 184.934165 87.49866295 184.934165 84.38754272 184.93479919 C83.20790955 184.94463333 82.02827637 184.95446747 80.81289673 184.96459961 C79.51645233 184.95493164 78.22000793 184.94526367 76.88427734 184.93530273 C75.505691 184.93908614 74.12710846 184.94458636 72.74853516 184.95167542 C68.99492724 184.96567359 65.24177578 184.95441726 61.48819304 184.9379642 C57.53872562 184.92408595 53.58928405 184.93057925 49.63980103 184.93409729 C42.98326322 184.93680419 36.32690513 184.92330658 29.67041016 184.90014648 C22.03917302 184.87377384 14.40824091 184.87171047 6.77697408 184.88353485 C-0.60998936 184.89444459 -7.99684543 184.8880084 -15.38380051 184.87397957 C-18.50034585 184.86830819 -21.61681026 184.86823154 -24.73335648 184.87304497 C-83.08081337 184.93960857 -130.57096577 167.24513805 -181.75 140.6796875 C-227.88667821 116.73458765 -268.70917941 109.032266 -320.19335938 109.23797607 C-323.66686954 109.24893794 -327.14034136 109.24844039 -330.61386585 109.24783802 C-333.97237764 109.24810913 -337.33086396 109.25357614 -340.68936729 109.26083946 C-342.28617855 109.2640125 -343.88299266 109.26599034 -345.4798069 109.26673317 C-347.68946982 109.26889502 -349.89900668 109.27762737 -352.10864258 109.28833008 C-353.36195877 109.29214188 -354.61527496 109.29595367 -355.90657043 109.29988098 C-358.99749807 109.29598137 -358.99749807 109.29598137 -361.953125 110.43359375 C-362.17193804 117.07164995 -362.36690145 123.71009711 -362.54516602 130.34936523 C-362.60865894 132.60864162 -362.6776443 134.86777052 -362.75219727 137.12670898 C-362.8583125 140.37070143 -362.94476974 143.61470869 -363.02734375 146.859375 C-363.06470139 147.87195877 -363.10205902 148.88454254 -363.14054871 149.92781067 C-363.16079605 150.86855942 -363.1810434 151.80930817 -363.2019043 152.77856445 C-363.22633102 153.60685257 -363.25075775 154.43514069 -363.27592468 155.28852844 C-363.08081298 157.45351849 -363.08081298 157.45351849 -361.95339966 159.20048523 C-358.74631113 161.17755782 -355.3553051 160.84658524 -351.69995117 160.81835938 C-350.85703018 160.82373215 -350.01410919 160.82910492 -349.14564514 160.8346405 C-347.31069926 160.84443485 -345.47570698 160.84735766 -343.64073753 160.84428406 C-340.71480395 160.83979575 -337.78947228 160.85384484 -334.86360168 160.87268066 C-328.62261966 160.90951858 -322.3816996 160.92313365 -316.140625 160.93359375 C-308.96694037 160.94575941 -301.79354569 160.96796881 -294.6199894 161.01359558 C-291.77674229 161.02690763 -288.93388652 161.02303778 -286.09062195 161.01818848 C-267.41245561 161.07407561 -248.95531394 163.3591785 -230.953125 168.43359375 C-230.21465332 168.63871582 -229.47618164 168.84383789 -228.71533203 169.05517578 C-200.87477294 177.01547871 -174.48797247 191.25915377 -148.953125 204.68359375 C-147.03680727 205.68946712 -145.12014719 206.6946886 -143.203125 207.69921875 C-142.31367188 208.16650391 -141.42421875 208.63378906 -140.5078125 209.11523438 C-138.13251351 210.3410194 -135.73641371 211.50881911 -133.328125 212.66796875 C-129.953125 214.43359375 -129.953125 214.43359375 -128.953125 216.43359375 C-128.85562234 217.83005412 -128.81930597 219.23103245 -128.8144598 220.63088417 C-128.80898536 221.51616535 -128.80351091 222.40144653 -128.79787058 223.31355441 C-128.79640342 224.78143076 -128.79640342 224.78143076 -128.79490662 226.27896118 C-128.78996864 227.31380878 -128.78503066 228.34865638 -128.77994305 229.41486299 C-128.76450553 232.9049916 -128.75619055 236.39510174 -128.74780273 239.88525391 C-128.73822912 242.37812972 -128.72821935 244.8710039 -128.71780396 247.36387634 C-128.69631837 252.74245285 -128.67788498 258.12102674 -128.66219902 263.49962234 C-128.63951436 271.27622693 -128.6113696 279.05280416 -128.58187974 286.82938556 C-128.5341866 299.44548977 -128.49092709 312.06160514 -128.45043945 324.67773438 C-128.41109328 336.9352302 -128.36966918 349.19271609 -128.32543945 361.45019531 C-128.32271518 362.20537975 -128.31999091 362.96056418 -128.31718408 363.73863299 C-128.30350475 367.52706187 -128.28978445 371.31549061 -128.27604377 375.10391927 C-128.16205193 406.54712462 -128.05606242 437.99034979 -127.953125 469.43359375 C-110.133125 469.43359375 -92.313125 469.43359375 -73.953125 469.43359375 C-73.623125 391.88359375 -73.293125 314.33359375 -72.953125 234.43359375 C-33.4459375 234.34078125 -33.4459375 234.34078125 6.859375 234.24609375 C15.18518799 234.21878174 23.51100098 234.19146973 32.08911133 234.16333008 C42.23181152 234.14978027 42.23181152 234.14978027 46.97538757 234.14726257 C50.2986498 234.14446007 53.62176923 234.13318793 56.94499207 234.11686707 C61.17944239 234.09634534 65.41368397 234.09010987 69.64817941 234.09437692 C71.20505705 234.09348419 72.76194171 234.08750236 74.31877673 234.07594836 C76.41674899 234.06109732 78.51390292 234.06459646 80.6118927 234.0728302 C81.78902234 234.07006482 82.96615198 234.06729944 84.17895222 234.06445026 C87.046875 234.43359375 87.046875 234.43359375 88.92479992 235.82506847 C90.40762983 237.95074565 90.43426638 239.3457235 90.4453125 241.92578125 C90.44917969 242.79589844 90.45304687 243.66601562 90.45703125 244.5625 C90.44542969 245.46871094 90.43382812 246.37492188 90.421875 247.30859375 C90.43927734 248.65630859 90.43927734 248.65630859 90.45703125 250.03125 C90.43526415 254.94335892 90.31929418 258.49072772 87.046875 262.43359375 C84.51528223 263.69939013 82.74394298 263.57254572 79.9090271 263.59181213 C78.2767643 263.60649536 78.2767643 263.60649536 76.61152649 263.62147522 C74.81294441 263.63010841 74.81294441 263.63010841 72.97802734 263.63891602 C71.71952469 263.64881561 70.46102203 263.65871521 69.16438293 263.66891479 C65.70802046 263.69599142 62.25164428 263.71698601 58.7952342 263.73691678 C55.18504804 263.75875936 51.57490422 263.78615648 47.9647522 263.81297302 C41.12601866 263.86292333 34.28726166 263.90785346 27.44848216 263.95099539 C19.66379178 264.00034781 11.87914389 264.05527332 4.09449458 264.11067498 C-11.92133947 264.22453091 -27.93721244 264.33136206 -43.953125 264.43359375 C-45.63128198 267.78990771 -45.09951345 271.58026534 -45.09788513 275.27171326 C-45.10141198 276.19827179 -45.10493882 277.12483033 -45.10857254 278.0794664 C-45.1192995 281.2032918 -45.12294741 284.32708675 -45.12670898 287.45092773 C-45.1330111 289.68278127 -45.13977651 291.91463354 -45.14697266 294.14648438 C-45.16166506 298.96193111 -45.17338057 303.77737291 -45.18292046 308.59283257 C-45.19833649 316.20115838 -45.22228453 323.80944215 -45.24781799 331.41773987 C-45.28295252 342.08000081 -45.31604583 352.7422643 -45.34594727 363.40454102 C-45.34784776 364.08149263 -45.34974825 364.75844425 -45.35170633 365.45590956 C-45.37854283 375.064543 -45.40241521 384.67318156 -45.42509133 394.28182561 C-45.42748729 395.29679825 -45.42748729 395.29679825 -45.42993164 396.33227539 C-45.43152511 397.00810173 -45.43311857 397.68392807 -45.43476032 398.380234 C-45.46150941 409.64091168 -45.496016 420.90155051 -45.53658539 432.16218811 C-45.56342256 439.73144548 -45.58128781 447.30065546 -45.59262264 454.86995113 C-45.60172372 459.5725745 -45.61907351 464.27514012 -45.63880157 468.9777298 C-45.64629931 471.16470244 -45.65035946 473.35168986 -45.65079689 475.53867531 C-45.65187338 478.51539604 -45.66506668 481.49182024 -45.68138123 484.4684906 C-45.67876437 485.3416331 -45.67614752 486.2147756 -45.67345136 487.11437696 C-45.72491087 493.09127256 -45.72491087 493.09127256 -47.953125 496.43359375 C-49.83345795 496.81111717 -49.83345795 496.81111717 -52.16638184 496.81454468 C-53.04972702 496.82300415 -53.9330722 496.83146362 -54.84318542 496.84017944 C-56.30042778 496.8310704 -56.30042778 496.8310704 -57.78710938 496.82177734 C-59.31891594 496.82966278 -59.31891594 496.82966278 -60.88166809 496.83770752 C-64.27022423 496.85095281 -67.65831376 496.84215325 -71.046875 496.83203125 C-73.39335216 496.83405068 -75.73982871 496.83696101 -78.08630371 496.84072876 C-83.00925662 496.84515826 -87.93204648 496.83870082 -92.85498047 496.82470703 C-99.17731453 496.80761497 -105.49926658 496.81745278 -111.82158661 496.83542442 C-116.66846617 496.84624528 -121.51525459 496.84282371 -126.36213684 496.83504105 C-128.69383285 496.83303434 -131.02553704 496.8355147 -133.35722351 496.84247971 C-136.61142008 496.85006617 -139.86499088 496.83852906 -143.11914062 496.82177734 C-144.09063553 496.82785004 -145.06213043 496.83392273 -146.06306458 496.84017944 C-146.94640976 496.83171997 -147.82975494 496.8232605 -148.73986816 496.81454468 C-149.89466549 496.81284806 -149.89466549 496.81284806 -151.07279205 496.81111717 C-152.953125 496.43359375 -152.953125 496.43359375 -154.953125 493.43359375 C-155.20793402 491.38745862 -155.20793402 491.38745862 -155.21483803 488.98831654 C-155.22230352 488.07317715 -155.22976901 487.15803775 -155.23746073 486.21516687 C-155.23455863 484.7049684 -155.23455863 484.7049684 -155.2315979 483.16426086 C-155.2373903 482.09589042 -155.2431827 481.02751998 -155.24915063 479.92677468 C-155.26622277 476.32916405 -155.26903335 472.73168114 -155.27197266 469.1340332 C-155.28126585 466.5621916 -155.2914336 463.99035302 -155.30241394 461.41851807 C-155.32470684 455.87244016 -155.33970789 450.32638076 -155.34978104 444.78026772 C-155.36435568 436.76148916 -155.38988904 428.74277509 -155.41811232 420.72403433 C-155.46360245 407.71472159 -155.50020806 394.70539957 -155.53125 381.69604492 C-155.56142646 369.05735648 -155.59577255 356.41869073 -155.63574219 343.7800293 C-155.63943451 342.61180278 -155.63943451 342.61180278 -155.64320143 341.41997574 C-155.65557585 337.51294482 -155.66803242 333.60591417 -155.68052983 329.69888365 C-155.78413088 297.27715112 -155.87332314 264.85539373 -155.953125 232.43359375 C-158.95210946 230.85080554 -161.95182408 229.26940589 -164.95166016 227.68823242 C-165.79064346 227.24541679 -166.62962677 226.80260117 -167.49403381 226.34636688 C-174.44950287 222.68158603 -181.43797623 219.0940198 -188.50195312 215.64282227 C-189.74740258 215.0312533 -190.98981293 214.41346557 -192.22949219 213.7902832 C-194.07637052 212.86234292 -195.9312781 211.95274217 -197.7890625 211.046875 C-198.85688965 210.51876221 -199.9247168 209.99064941 -201.02490234 209.4465332 C-204.27800919 208.32120885 -205.68834701 208.63985662 -208.953125 209.43359375 C-208.95448153 210.03089428 -208.95583806 210.62819481 -208.95723569 211.24359536 C-209.03784178 246.62473631 -209.12877824 282.00583598 -209.23317661 317.38691492 C-209.24569586 321.6327803 -209.25812857 325.87864593 -209.27050781 330.12451172 C-209.27297381 330.96980646 -209.2754398 331.8151012 -209.27798052 332.68601093 C-209.31773145 346.38263417 -209.35046845 360.07926569 -209.38062482 373.77591303 C-209.41171125 387.82427143 -209.45030856 401.87259462 -209.49591506 415.92091346 C-209.52383112 424.59325249 -209.5458506 433.2655657 -209.56038751 441.93793765 C-209.57090923 447.88053399 -209.58870992 453.8230804 -209.61229204 459.76563916 C-209.62569191 463.19695038 -209.63582733 466.62819146 -209.63733864 470.05953026 C-209.64064515 473.77605224 -209.65607908 477.49232891 -209.6746521 481.20880127 C-209.67271737 482.29828827 -209.67078263 483.38777527 -209.66878927 484.51027703 C-209.67625476 485.50404217 -209.68372025 486.49780732 -209.69141197 487.52168655 C-209.69482946 488.80893847 -209.69482946 488.80893847 -209.69831598 490.12219548 C-209.97449597 492.62745193 -210.69485084 494.26790397 -211.953125 496.43359375 C-215.74464834 496.52039195 -219.53591796 496.57391582 -223.328125 496.62109375 C-224.94847656 496.65879883 -224.94847656 496.65879883 -226.6015625 496.69726562 C-227.6328125 496.70693359 -228.6640625 496.71660156 -229.7265625 496.7265625 C-230.67966309 496.74227295 -231.63276367 496.7579834 -232.61474609 496.77416992 C-233.38641113 496.66177979 -234.15807617 496.54938965 -234.953125 496.43359375 C-237.13492083 493.16090001 -237.20370182 492.23899059 -237.20645809 488.4500885 C-237.21207349 487.41488036 -237.21768888 486.37967222 -237.22347444 485.31309414 C-237.2175028 483.60169042 -237.2175028 483.60169042 -237.21141052 481.85571289 C-237.21508623 480.64653481 -237.21876193 479.43735674 -237.22254902 478.1915369 C-237.23082188 474.82916807 -237.23015068 471.46701141 -237.22582209 468.10464907 C-237.22335038 464.48087609 -237.23240826 460.85713077 -237.24020386 457.23336792 C-237.25225975 450.95227589 -237.25735735 444.67120926 -237.25808525 438.3901062 C-237.2594093 429.30536111 -237.27450664 420.22067781 -237.29358042 411.1359545 C-237.32443656 396.39305282 -237.34859603 381.65014958 -237.36645508 366.90722656 C-237.3680641 365.58311876 -237.3680641 365.58311876 -237.36970562 364.2322613 C-237.38152857 354.38120129 -237.39173342 344.53014066 -237.40014648 334.67907715 C-237.40322041 331.1060384 -237.40630919 327.53299966 -237.40942383 323.95996094 C-237.41057184 322.63746147 -237.41057184 322.63746147 -237.41174304 321.28824484 C-237.42481233 306.60133828 -237.44943434 291.91447643 -237.48316723 277.22760296 C-237.50348779 268.16272183 -237.51374243 259.09793626 -237.51117802 250.03303218 C-237.51014505 243.82508747 -237.51974601 237.61721841 -237.53781705 231.40930009 C-237.54788849 227.82413314 -237.55296204 224.23913351 -237.54504967 220.65395737 C-237.53658613 216.77302784 -237.55105165 212.8923816 -237.56785583 209.01147461 C-237.56164402 207.8705388 -237.5554322 206.72960299 -237.54903215 205.55409336 C-237.55725529 204.51888522 -237.56547844 203.48367708 -237.57395077 202.417099 C-237.57517245 201.07248045 -237.57517245 201.07248045 -237.57641882 199.7006979 C-238.03674307 196.93036105 -238.71276831 196.08658255 -240.953125 194.43359375 C-250.55765094 191.53780857 -260.59561275 190.18286394 -270.56933594 189.32958984 C-271.55754208 189.24502218 -272.54574821 189.16045452 -273.56389999 189.0733242 C-283.89242093 188.25883461 -294.19773784 188.15255152 -304.5535965 188.15919876 C-307.94207504 188.16018486 -311.33025404 188.14699139 -314.71868896 188.13021851 C-324.33131874 188.08449734 -333.94390521 188.05927235 -343.55664062 188.05273438 C-349.4836255 188.04773645 -355.4102781 188.0236116 -361.33715057 187.98740768 C-363.58426678 187.97760517 -365.83142854 187.97528018 -368.07855988 187.98057938 C-371.19629651 187.98760647 -374.31302318 187.97047022 -377.43066406 187.94775391 C-378.35622101 187.95592636 -379.28177795 187.96409882 -380.23538208 187.97251892 C-381.08133942 187.96149643 -381.92729675 187.95047394 -382.79888916 187.93911743 C-383.53318272 187.9380279 -384.26747627 187.93693836 -385.02402115 187.93581581 C-386.953125 187.43359375 -386.953125 187.43359375 -388.68895531 185.84798241 C-390.41594255 182.54967647 -390.33081168 180.01787002 -390.33407593 176.29785156 C-390.3387559 175.57855091 -390.34343587 174.85925026 -390.34825766 174.11815262 C-390.36022536 171.7074872 -390.35074379 169.29738841 -390.34130859 166.88671875 C-390.34537352 165.15864734 -390.35071495 163.43057853 -390.35723877 161.70251465 C-390.37092763 157.00835308 -390.36560725 152.31438907 -390.35610151 147.620224 C-390.34851306 142.71067772 -390.35554826 137.8011485 -390.36026001 132.89160156 C-390.36571993 124.64645344 -390.35851973 116.40138589 -390.34423828 108.15625 C-390.32791132 98.61997139 -390.33319966 89.08388519 -390.3497175 79.54761124 C-390.36332561 71.36407955 -390.36525533 63.18060584 -390.35740149 54.9970665 C-390.35272126 50.10759069 -390.35210973 45.21820537 -390.36201096 40.32873535 C-390.37066852 35.73223348 -390.36468089 31.13598 -390.34732819 26.539505 C-390.34335687 24.85122592 -390.3445084 23.16292598 -390.35111618 21.47465515 C-390.35929647 19.1725986 -390.34905342 16.87134136 -390.33407593 14.56933594 C-390.33294485 13.28033386 -390.33181377 11.99133179 -390.33064842 10.66326904 C-389.92662406 7.20688088 -389.53035463 5.75307488 -386.953125 3.43359375 C-384.85502338 2.9330225 -384.85502338 2.9330225 -382.38801575 2.93238831 C-381.45094788 2.92255417 -380.51388 2.91272003 -379.54841614 2.90258789 C-378.52157211 2.91225586 -377.49472809 2.92192383 -376.43676758 2.93188477 C-374.81144608 2.92378029 -374.81144608 2.92378029 -373.15328979 2.91551208 C-369.55113806 2.90295522 -365.94977611 2.91958545 -362.34765625 2.9375 C-359.83111021 2.93734494 -357.31456393 2.93585479 -354.79801941 2.93309021 C-349.50251913 2.93170231 -344.20729591 2.94387441 -338.91186523 2.96704102 C-333.51854519 2.99047799 -328.12553963 2.99785742 -322.73217773 2.98754883 C-316.19281302 2.9750679 -309.65365215 2.97773971 -303.11429405 2.99320793 C-300.64169394 2.99766657 -298.16908266 2.99810925 -295.6964817 2.99414253 C-256.80802409 2.96102272 -223.05042753 10.95836038 -187.953125 27.43359375 C-186.30226223 28.198303 -184.65122136 28.96262787 -183 29.7265625 C-170.18277615 35.6982963 -170.18277615 35.6982963 -164.67578125 38.8125 C-164.00329346 39.19011475 -163.33080566 39.56772949 -162.63793945 39.95678711 C-161.39336825 40.66552526 -160.15780534 41.39045219 -158.93432617 42.13500977 C-156.04156167 43.78831755 -154.01620476 44.4328428 -150.671875 44.47265625 C-145.5983667 43.05505834 -141.30472522 40.71322355 -136.703125 38.18359375 C-134.64628595 37.08524935 -132.58761432 35.99033149 -130.52734375 34.8984375 C-128.91545166 34.04354736 -128.91545166 34.04354736 -127.27099609 33.17138672 C-85.74587837 11.42188062 -46.91049909 -0.07308066 0 0 Z M-47.890625 30.62109375 C-48.8091626 30.83902588 -49.7277002 31.05695801 -50.67407227 31.28149414 C-66.24805938 35.11243538 -80.76982995 41.06508958 -95.390625 47.55859375 C-96.07728241 47.86014374 -96.76393982 48.16169373 -97.47140503 48.47238159 C-99.44921396 49.34510042 -101.4187783 50.23419094 -103.38671875 51.12890625 C-104.53197021 51.64469238 -105.67722168 52.16047852 -106.85717773 52.69189453 C-110.15899993 54.54941362 -112.41159982 56.64412213 -114.953125 59.43359375 C-114.4922833 61.89573484 -114.4922833 61.89573484 -112.953125 64.43359375 C-110.40890638 65.70723388 -108.20136307 66.59638312 -105.515625 67.43359375 C-104.76063721 67.68214111 -104.00564941 67.93068848 -103.2277832 68.18676758 C-100.81119285 68.96614466 -98.38586552 69.70629458 -95.953125 70.43359375 C-95.18129883 70.6661084 -94.40947266 70.89862305 -93.61425781 71.13818359 C-71.91266676 77.54772328 -50.94054854 78.8921121 -28.3828125 78.83203125 C-25.68091506 78.83270274 -22.97902478 78.83696774 -20.27713013 78.84072876 C-14.66143267 78.84613503 -9.04585495 78.83911731 -3.43017578 78.82470703 C3.0595548 78.80824622 9.54900454 78.81378561 16.03872883 78.83018625 C21.64253844 78.84377813 27.24626344 78.84573642 32.85008419 78.83787024 C36.18438367 78.83319933 39.51852165 78.83373874 42.85281754 78.84247971 C46.54807249 78.85005535 50.2427748 78.83855098 53.93798828 78.82177734 C55.59125626 78.83088638 55.59125626 78.83088638 57.27792358 78.84017944 C58.77848297 78.82749023 58.77848297 78.82749023 60.30935669 78.81454468 C61.18120668 78.8134136 62.05305668 78.81228252 62.95132637 78.81111717 C63.64285742 78.68653444 64.33438847 78.56195171 65.046875 78.43359375 C67.12696999 75.31345127 67.30271987 74.5772891 67.33740234 71.02563477 C67.35016205 70.13783829 67.36292175 69.25004181 67.37606812 68.33534241 C67.37829376 67.37905441 67.38051941 66.42276642 67.3828125 65.4375 C67.3894693 64.45240952 67.3961261 63.46731903 67.40298462 62.45237732 C67.41311161 60.3685798 67.41780162 58.28474984 67.41748047 56.20092773 C67.42185365 53.01166416 67.45817321 49.82378428 67.49609375 46.63476562 C67.50196185 44.61068182 67.50593129 42.58659144 67.5078125 40.5625 C67.52936905 39.13110435 67.52936905 39.13110435 67.55136108 37.67079163 C67.5421312 36.33436867 67.5421312 36.33436867 67.53271484 34.97094727 C67.53556488 34.18945816 67.53841492 33.40796906 67.54135132 32.60279846 C66.81752977 29.42748542 65.68905083 28.3220971 63.046875 26.43359375 C60.37774335 26.0486081 58.12401371 25.90575176 55.45874023 25.94775391 C54.69863647 25.94395721 53.93853271 25.94016052 53.15539551 25.93624878 C50.63833464 25.92883378 48.12242761 25.95026706 45.60546875 25.97265625 C43.84066401 25.97504392 42.0758567 25.97594531 40.31105042 25.97543335 C36.60116768 25.97856481 32.89167038 25.99513427 29.18188477 26.02197266 C24.48227776 26.05558009 19.78310136 26.06361168 15.08338833 26.06208229 C11.42906252 26.06263357 7.7748265 26.0737258 4.12053108 26.08808517 C2.39181254 26.09435234 0.66308403 26.09836777 -1.06564522 26.09987259 C-16.77497431 26.12846612 -32.56171025 26.93954297 -47.890625 30.62109375 Z M-361.95857239 31.67364502 C-363.22087683 33.90740427 -363.32745389 35.38414941 -363.32543945 37.94921875 C-363.33166824 38.86026367 -363.33789703 39.77130859 -363.34431458 40.70996094 C-363.33510483 41.69125977 -363.32589508 42.67255859 -363.31640625 43.68359375 C-363.31690475 44.69325195 -363.31740326 45.70291016 -363.31791687 46.74316406 C-363.31557592 48.87827522 -363.3058462 51.01338912 -363.28930664 53.1484375 C-363.26571706 56.42082334 -363.26874531 59.69239452 -363.27539062 62.96484375 C-363.26981384 65.03776529 -363.26270396 67.11068338 -363.25390625 69.18359375 C-363.25481766 70.16489258 -363.25572906 71.14619141 -363.25666809 72.15722656 C-363.24713608 73.06827148 -363.23760406 73.97931641 -363.2277832 74.91796875 C-363.22317581 75.71944336 -363.21856842 76.52091797 -363.21382141 77.34667969 C-363.07307144 79.73823222 -363.07307144 79.73823222 -360.953125 82.43359375 C-358.31199251 82.73951929 -355.90127277 82.85026972 -353.2565918 82.83422852 C-352.06317169 82.84469711 -352.06317169 82.84469711 -350.84564209 82.8553772 C-348.19777011 82.87546708 -345.55028553 82.87485436 -342.90234375 82.875 C-341.04977885 82.88678071 -339.19722341 82.90014662 -337.34468079 82.9150238 C-332.44215653 82.95133771 -327.5397157 82.97142531 -322.63708496 82.98657227 C-314.85898568 83.01128778 -307.08107188 83.05200176 -299.30314064 83.10847282 C-296.61559592 83.12447454 -293.92823223 83.12855248 -291.24064636 83.13148499 C-241.46004419 83.3391368 -198.46687353 100.4722956 -155.078125 123.62109375 C-111.18990751 147.01090949 -69.5251054 158.62406951 -19.93359375 158.56640625 C-17.85671477 158.56708202 -15.77983587 158.5680543 -13.70295715 158.56930542 C-9.38244869 158.57076794 -5.06196109 158.56867375 -0.74145508 158.56396484 C4.76661992 158.55825044 10.27464636 158.56156661 15.78271961 158.56753731 C20.05948751 158.57116691 24.33624406 158.56999364 28.61301231 158.56740952 C30.64337864 158.56674781 32.67374603 158.56754188 34.7041111 158.56988907 C50.00221235 159.16714368 50.00221235 159.16714368 65.046875 157.43359375 C67.12696999 154.31345127 67.30271987 153.5772891 67.33740234 150.02563477 C67.35016205 149.13783829 67.36292175 148.25004181 67.37606812 147.33534241 C67.37829376 146.37905441 67.38051941 145.42276642 67.3828125 144.4375 C67.3894693 143.45240952 67.3961261 142.46731903 67.40298462 141.45237732 C67.41311161 139.3685798 67.41780162 137.28474984 67.41748047 135.20092773 C67.42185365 132.01166416 67.45817321 128.82378428 67.49609375 125.63476562 C67.50196185 123.61068182 67.50593129 121.58659144 67.5078125 119.5625 C67.52936905 118.13110435 67.52936905 118.13110435 67.55136108 116.67079163 C67.54520782 115.77984299 67.53905457 114.88889435 67.53271484 113.97094727 C67.53556488 113.18945816 67.53841492 112.40796906 67.54135132 111.60279846 C66.7848842 108.28427344 65.91773561 107.32593288 63.046875 105.43359375 C59.4149545 104.83708735 55.81485589 104.90125887 52.14160156 104.93530273 C50.47216995 104.92702454 50.47216995 104.92702454 48.76901245 104.9185791 C46.34749363 104.90924468 43.92592573 104.90916574 41.50440216 104.91717339 C37.6494772 104.92981216 33.79526777 104.91849703 29.94036865 104.90113831 C22.42059508 104.87163459 14.90100063 104.8688118 7.38117981 104.87078857 C-2.77076462 104.87227498 -12.92248045 104.85504525 -23.07434845 104.8146534 C-26.83156813 104.80496078 -30.58843072 104.81346543 -34.34564209 104.823349 C-88.23799107 104.77644332 -132.50998515 85.48025267 -179.73608398 61.56811523 C-211.04436088 45.71766322 -243.3439018 30.32226818 -279.18896484 30.27246094 C-280.50043991 30.26501358 -280.50043991 30.26501358 -281.83840942 30.25741577 C-284.69696872 30.24294626 -287.55547279 30.23602251 -290.4140625 30.23046875 C-291.394995 30.22764137 -292.37592751 30.224814 -293.38658524 30.22190094 C-298.56420405 30.20698039 -303.74179544 30.19770235 -308.91943359 30.19335938 C-314.26953625 30.18784444 -319.61938828 30.16373314 -324.96941185 30.13538742 C-329.08713535 30.11680464 -333.20479745 30.11155807 -337.32255936 30.1100235 C-339.29618342 30.10699321 -341.26980631 30.09895206 -343.24338913 30.08583832 C-345.99367574 30.06884794 -348.74333506 30.07063923 -351.49365234 30.07714844 C-352.31029358 30.06793365 -353.12693481 30.05871887 -353.96832275 30.04922485 C-358.16801548 30.06173576 -358.16801548 30.06173576 -361.95857239 31.67364502 Z " fill="#DADADA" transform="translate(397.953125,3.56640625)"/>
</svg>
